<mxfile host="app.diagrams.net" modified="2024-03-20T22:13:47.809Z" agent="Mozilla/5.0 (Macintosh; Intel Mac OS X 10_15_7) AppleWebKit/605.1.15 (KHTML, like Gecko) Version/16.6 Safari/605.1.15" version="24.0.7" etag="9wSyCL7tV5WU-M3PbY94" type="github">
  <diagram name="Page-1" id="b-HpYZBPd_bW3f6i9OI9">
    <mxGraphModel>
      <root>
        <mxCell id="0" />
        <mxCell id="1" parent="0" />
      </root>
    </mxGraphModel>
  </diagram>
</mxfile>
